<svg width="500" height="500" viewBox="0 0 500 500" fill="none" xmlns="http://www.w3.org/2000/svg">
<path d="M194.861 387.35V394H184.411V422H176.611V394H166.161V387.35H194.861ZM211.757 402.3C211.091 402.133 210.307 401.967 209.407 401.8C208.507 401.6 207.541 401.5 206.507 401.5C206.041 401.5 205.474 401.55 204.807 401.65C204.174 401.717 203.691 401.8 203.357 401.9V422H195.907V397.1C197.241 396.633 198.807 396.2 200.607 395.8C202.441 395.367 204.474 395.15 206.707 395.15C207.107 395.15 207.591 395.183 208.157 395.25C208.724 395.283 209.291 395.35 209.857 395.45C210.424 395.517 210.991 395.617 211.557 395.75C212.124 395.85 212.607 395.983 213.007 396.15L211.757 402.3ZM226.563 416.8C227.296 416.8 227.996 416.783 228.663 416.75C229.329 416.717 229.863 416.667 230.263 416.6V410.95C229.963 410.883 229.513 410.817 228.913 410.75C228.313 410.683 227.763 410.65 227.263 410.65C226.563 410.65 225.896 410.7 225.263 410.8C224.663 410.867 224.129 411.017 223.663 411.25C223.196 411.483 222.829 411.8 222.563 412.2C222.296 412.6 222.163 413.1 222.163 413.7C222.163 414.867 222.546 415.683 223.313 416.15C224.113 416.583 225.196 416.8 226.563 416.8ZM225.963 395C228.163 395 229.996 395.25 231.463 395.75C232.929 396.25 234.096 396.967 234.963 397.9C235.863 398.833 236.496 399.967 236.863 401.3C237.229 402.633 237.413 404.117 237.413 405.75V421.25C236.346 421.483 234.863 421.75 232.963 422.05C231.063 422.383 228.763 422.55 226.063 422.55C224.363 422.55 222.813 422.4 221.413 422.1C220.046 421.8 218.863 421.317 217.863 420.65C216.863 419.95 216.096 419.05 215.563 417.95C215.029 416.85 214.763 415.5 214.763 413.9C214.763 412.367 215.063 411.067 215.663 410C216.296 408.933 217.129 408.083 218.163 407.45C219.196 406.817 220.379 406.367 221.713 406.1C223.046 405.8 224.429 405.65 225.863 405.65C226.829 405.65 227.679 405.7 228.413 405.8C229.179 405.867 229.796 405.967 230.263 406.1V405.4C230.263 404.133 229.879 403.117 229.113 402.35C228.346 401.583 227.013 401.2 225.113 401.2C223.846 401.2 222.596 401.3 221.363 401.5C220.129 401.667 219.063 401.917 218.163 402.25L217.213 396.25C217.646 396.117 218.179 395.983 218.813 395.85C219.479 395.683 220.196 395.55 220.963 395.45C221.729 395.317 222.529 395.217 223.363 395.15C224.229 395.05 225.096 395 225.963 395ZM251.599 422H244.149V395.7H251.599V422ZM252.299 388.1C252.299 389.467 251.849 390.55 250.949 391.35C250.083 392.117 249.049 392.5 247.849 392.5C246.649 392.5 245.599 392.117 244.699 391.35C243.833 390.55 243.399 389.467 243.399 388.1C243.399 386.733 243.833 385.667 244.699 384.9C245.599 384.1 246.649 383.7 247.849 383.7C249.049 383.7 250.083 384.1 250.949 384.9C251.849 385.667 252.299 386.733 252.299 388.1ZM258.603 396.6C259.869 396.233 261.503 395.9 263.503 395.6C265.503 395.267 267.603 395.1 269.803 395.1C272.036 395.1 273.886 395.4 275.353 396C276.853 396.567 278.036 397.383 278.903 398.45C279.769 399.517 280.386 400.783 280.753 402.25C281.119 403.717 281.303 405.35 281.303 407.15V422H273.853V408.05C273.853 405.65 273.536 403.95 272.903 402.95C272.269 401.95 271.086 401.45 269.353 401.45C268.819 401.45 268.253 401.483 267.653 401.55C267.053 401.583 266.519 401.633 266.053 401.7V422H258.603V396.6ZM286.796 409.05C286.796 406.717 287.146 404.683 287.846 402.95C288.579 401.183 289.529 399.717 290.696 398.55C291.863 397.383 293.196 396.5 294.696 395.9C296.229 395.3 297.796 395 299.396 395C303.129 395 306.079 396.15 308.246 398.45C310.413 400.717 311.496 404.067 311.496 408.5C311.496 408.933 311.479 409.417 311.446 409.95C311.413 410.45 311.379 410.9 311.346 411.3H294.446C294.613 412.833 295.329 414.05 296.596 414.95C297.863 415.85 299.563 416.3 301.696 416.3C303.063 416.3 304.396 416.183 305.696 415.95C307.029 415.683 308.113 415.367 308.946 415L309.946 421.05C309.546 421.25 309.013 421.45 308.346 421.65C307.679 421.85 306.929 422.017 306.096 422.15C305.296 422.317 304.429 422.45 303.496 422.55C302.563 422.65 301.629 422.7 300.696 422.7C298.329 422.7 296.263 422.35 294.496 421.65C292.763 420.95 291.313 420 290.146 418.8C289.013 417.567 288.163 416.117 287.596 414.45C287.063 412.783 286.796 410.983 286.796 409.05ZM304.296 406.2C304.263 405.567 304.146 404.95 303.946 404.35C303.779 403.75 303.496 403.217 303.096 402.75C302.729 402.283 302.246 401.9 301.646 401.6C301.079 401.3 300.363 401.15 299.496 401.15C298.663 401.15 297.946 401.3 297.346 401.6C296.746 401.867 296.246 402.233 295.846 402.7C295.446 403.167 295.129 403.717 294.896 404.35C294.696 404.95 294.546 405.567 294.446 406.2H304.296ZM333.095 402.3C332.428 402.133 331.645 401.967 330.745 401.8C329.845 401.6 328.878 401.5 327.845 401.5C327.378 401.5 326.812 401.55 326.145 401.65C325.512 401.717 325.028 401.8 324.695 401.9V422H317.245V397.1C318.578 396.633 320.145 396.2 321.945 395.8C323.778 395.367 325.812 395.15 328.045 395.15C328.445 395.15 328.928 395.183 329.495 395.25C330.062 395.283 330.628 395.35 331.195 395.45C331.762 395.517 332.328 395.617 332.895 395.75C333.462 395.85 333.945 395.983 334.345 396.15L333.095 402.3Z" fill="black"/>
<path d="M162.276 347V312.35H185.476V318.9H170.076V326.15H183.776V332.7H170.076V347H162.276ZM205.361 327.3C204.694 327.133 203.911 326.967 203.011 326.8C202.111 326.6 201.144 326.5 200.111 326.5C199.644 326.5 199.077 326.55 198.411 326.65C197.777 326.717 197.294 326.8 196.961 326.9V347H189.511V322.1C190.844 321.633 192.411 321.2 194.211 320.8C196.044 320.367 198.077 320.15 200.311 320.15C200.711 320.15 201.194 320.183 201.761 320.25C202.327 320.283 202.894 320.35 203.461 320.45C204.027 320.517 204.594 320.617 205.161 320.75C205.727 320.85 206.211 320.983 206.611 321.15L205.361 327.3ZM218.054 347H210.604V320.7H218.054V347ZM218.754 313.1C218.754 314.467 218.304 315.55 217.404 316.35C216.538 317.117 215.504 317.5 214.304 317.5C213.104 317.5 212.054 317.117 211.154 316.35C210.288 315.55 209.854 314.467 209.854 313.1C209.854 311.733 210.288 310.667 211.154 309.9C212.054 309.1 213.104 308.7 214.304 308.7C215.504 308.7 216.538 309.1 217.404 309.9C218.304 310.667 218.754 311.733 218.754 313.1ZM231.408 333.65C231.408 335.95 231.924 337.8 232.958 339.2C233.991 340.6 235.524 341.3 237.558 341.3C238.224 341.3 238.841 341.283 239.408 341.25C239.974 341.183 240.441 341.117 240.808 341.05V327.5C240.341 327.2 239.724 326.95 238.958 326.75C238.224 326.55 237.474 326.45 236.708 326.45C233.174 326.45 231.408 328.85 231.408 333.65ZM248.258 346.15C247.591 346.35 246.824 346.55 245.958 346.75C245.091 346.917 244.174 347.067 243.208 347.2C242.274 347.333 241.308 347.433 240.308 347.5C239.341 347.6 238.408 347.65 237.508 347.65C235.341 347.65 233.408 347.333 231.708 346.7C230.008 346.067 228.574 345.167 227.408 344C226.241 342.8 225.341 341.367 224.708 339.7C224.108 338 223.808 336.1 223.808 334C223.808 331.867 224.074 329.95 224.608 328.25C225.141 326.517 225.908 325.05 226.908 323.85C227.908 322.65 229.124 321.733 230.558 321.1C232.024 320.467 233.691 320.15 235.558 320.15C236.591 320.15 237.508 320.25 238.308 320.45C239.141 320.65 239.974 320.933 240.808 321.3V309.4L248.258 308.2V346.15ZM271.083 327.3C270.417 327.133 269.633 326.967 268.733 326.8C267.833 326.6 266.867 326.5 265.833 326.5C265.367 326.5 264.8 326.55 264.133 326.65C263.5 326.717 263.017 326.8 262.683 326.9V347H255.233V322.1C256.567 321.633 258.133 321.2 259.933 320.8C261.767 320.367 263.8 320.15 266.033 320.15C266.433 320.15 266.917 320.183 267.483 320.25C268.05 320.283 268.617 320.35 269.183 320.45C269.75 320.517 270.317 320.617 270.883 320.75C271.45 320.85 271.933 320.983 272.333 321.15L271.083 327.3ZM283.777 347H276.327V320.7H283.777V347ZM284.477 313.1C284.477 314.467 284.027 315.55 283.127 316.35C282.26 317.117 281.227 317.5 280.027 317.5C278.827 317.5 277.777 317.117 276.877 316.35C276.01 315.55 275.577 314.467 275.577 313.1C275.577 311.733 276.01 310.667 276.877 309.9C277.777 309.1 278.827 308.7 280.027 308.7C281.227 308.7 282.26 309.1 283.127 309.9C284.027 310.667 284.477 311.733 284.477 313.1ZM289.53 333.85C289.53 331.95 289.83 330.167 290.43 328.5C291.064 326.8 291.964 325.333 293.13 324.1C294.297 322.833 295.714 321.833 297.38 321.1C299.047 320.367 300.947 320 303.08 320C304.48 320 305.764 320.133 306.93 320.4C308.097 320.633 309.23 320.983 310.33 321.45L308.78 327.4C308.08 327.133 307.314 326.9 306.48 326.7C305.647 326.5 304.714 326.4 303.68 326.4C301.48 326.4 299.83 327.083 298.73 328.45C297.664 329.817 297.13 331.617 297.13 333.85C297.13 336.217 297.63 338.05 298.63 339.35C299.664 340.65 301.447 341.3 303.98 341.3C304.88 341.3 305.847 341.217 306.88 341.05C307.914 340.883 308.864 340.617 309.73 340.25L310.78 346.35C309.914 346.717 308.83 347.033 307.53 347.3C306.23 347.567 304.797 347.7 303.23 347.7C300.83 347.7 298.764 347.35 297.03 346.65C295.297 345.917 293.864 344.933 292.73 343.7C291.63 342.467 290.814 341.017 290.28 339.35C289.78 337.65 289.53 335.817 289.53 333.85ZM315.78 347V309.4L323.23 308.2V320.8C323.73 320.633 324.364 320.483 325.13 320.35C325.93 320.183 326.697 320.1 327.43 320.1C329.564 320.1 331.33 320.4 332.73 321C334.164 321.567 335.297 322.383 336.13 323.45C336.997 324.517 337.597 325.783 337.93 327.25C338.297 328.717 338.48 330.35 338.48 332.15V347H331.03V333.05C331.03 330.65 330.714 328.95 330.08 327.95C329.48 326.95 328.347 326.45 326.68 326.45C326.014 326.45 325.38 326.517 324.78 326.65C324.214 326.75 323.697 326.867 323.23 327V347H315.78Z" fill="black"/>
<path d="M208 58H168C162.477 58 158 62.4772 158 68V108C158 113.523 162.477 118 168 118H208C213.523 118 218 113.523 218 108V68C218 62.4772 213.523 58 208 58Z" fill="#0000FF"/>
<path d="M270 58H230C224.477 58 220 62.4772 220 68V108C220 113.523 224.477 118 230 118H270C275.523 118 280 113.523 280 108V68C280 62.4772 275.523 58 270 58Z" fill="#00FF00"/>
<path d="M332 58H292C286.477 58 282 62.4772 282 68V108C282 113.523 286.477 118 292 118H332C337.523 118 342 113.523 342 108V68C342 62.4772 337.523 58 332 58Z" fill="#FFFF00"/>
<path d="M208 120H168C162.477 120 158 124.477 158 130V170C158 175.523 162.477 180 168 180H208C213.523 180 218 175.523 218 170V130C218 124.477 213.523 120 208 120Z" fill="#FF0000"/>
<path d="M270 120H230C224.477 120 220 124.477 220 130V170C220 175.523 224.477 180 230 180H270C275.523 180 280 175.523 280 170V130C280 124.477 275.523 120 270 120Z" fill="#0000FF"/>
<path d="M332 120H292C286.477 120 282 124.477 282 130V170C282 175.523 286.477 180 292 180H332C337.523 180 342 175.523 342 170V130C342 124.477 337.523 120 332 120Z" fill="#FFFF00"/>
<path d="M208 182H168C162.477 182 158 186.477 158 192V232C158 237.523 162.477 242 168 242H208C213.523 242 218 237.523 218 232V192C218 186.477 213.523 182 208 182Z" fill="#FF0000"/>
<path d="M270 182H230C224.477 182 220 186.477 220 192V232C220 237.523 224.477 242 230 242H270C275.523 242 280 237.523 280 232V192C280 186.477 275.523 182 270 182Z" fill="#FF9900"/>
<path d="M332 182H292C286.477 182 282 186.477 282 192V232C282 237.523 286.477 242 292 242H332C337.523 242 342 237.523 342 232V192C342 186.477 337.523 182 332 182Z" fill="#00FF00"/>
</svg>
