<svg width="500" height="500" viewBox="0 0 500 500" fill="none" xmlns="http://www.w3.org/2000/svg">
<path d="M319.861 262.35V269H309.411V297H301.611V269H291.161V262.35H319.861ZM336.757 277.3C336.091 277.133 335.307 276.967 334.407 276.8C333.507 276.6 332.541 276.5 331.507 276.5C331.041 276.5 330.474 276.55 329.807 276.65C329.174 276.717 328.691 276.8 328.357 276.9V297H320.907V272.1C322.241 271.633 323.807 271.2 325.607 270.8C327.441 270.367 329.474 270.15 331.707 270.15C332.107 270.15 332.591 270.183 333.157 270.25C333.724 270.283 334.291 270.35 334.857 270.45C335.424 270.517 335.991 270.617 336.557 270.75C337.124 270.85 337.607 270.983 338.007 271.15L336.757 277.3ZM351.563 291.8C352.296 291.8 352.996 291.783 353.663 291.75C354.329 291.717 354.863 291.667 355.263 291.6V285.95C354.963 285.883 354.513 285.817 353.913 285.75C353.313 285.683 352.763 285.65 352.263 285.65C351.563 285.65 350.896 285.7 350.263 285.8C349.663 285.867 349.129 286.017 348.663 286.25C348.196 286.483 347.829 286.8 347.563 287.2C347.296 287.6 347.163 288.1 347.163 288.7C347.163 289.867 347.546 290.683 348.313 291.15C349.113 291.583 350.196 291.8 351.563 291.8ZM350.963 270C353.163 270 354.996 270.25 356.463 270.75C357.929 271.25 359.096 271.967 359.963 272.9C360.863 273.833 361.496 274.967 361.863 276.3C362.229 277.633 362.413 279.117 362.413 280.75V296.25C361.346 296.483 359.863 296.75 357.963 297.05C356.063 297.383 353.763 297.55 351.063 297.55C349.363 297.55 347.813 297.4 346.413 297.1C345.046 296.8 343.863 296.317 342.863 295.65C341.863 294.95 341.096 294.05 340.563 292.95C340.029 291.85 339.763 290.5 339.763 288.9C339.763 287.367 340.063 286.067 340.663 285C341.296 283.933 342.129 283.083 343.163 282.45C344.196 281.817 345.379 281.367 346.713 281.1C348.046 280.8 349.429 280.65 350.863 280.65C351.829 280.65 352.679 280.7 353.413 280.8C354.179 280.867 354.796 280.967 355.263 281.1V280.4C355.263 279.133 354.879 278.117 354.113 277.35C353.346 276.583 352.013 276.2 350.113 276.2C348.846 276.2 347.596 276.3 346.363 276.5C345.129 276.667 344.063 276.917 343.163 277.25L342.213 271.25C342.646 271.117 343.179 270.983 343.813 270.85C344.479 270.683 345.196 270.55 345.963 270.45C346.729 270.317 347.529 270.217 348.363 270.15C349.229 270.05 350.096 270 350.963 270ZM376.599 297H369.149V270.7H376.599V297ZM377.299 263.1C377.299 264.467 376.849 265.55 375.949 266.35C375.083 267.117 374.049 267.5 372.849 267.5C371.649 267.5 370.599 267.117 369.699 266.35C368.833 265.55 368.399 264.467 368.399 263.1C368.399 261.733 368.833 260.667 369.699 259.9C370.599 259.1 371.649 258.7 372.849 258.7C374.049 258.7 375.083 259.1 375.949 259.9C376.849 260.667 377.299 261.733 377.299 263.1ZM383.603 271.6C384.869 271.233 386.503 270.9 388.503 270.6C390.503 270.267 392.603 270.1 394.803 270.1C397.036 270.1 398.886 270.4 400.353 271C401.853 271.567 403.036 272.383 403.903 273.45C404.769 274.517 405.386 275.783 405.753 277.25C406.119 278.717 406.303 280.35 406.303 282.15V297H398.853V283.05C398.853 280.65 398.536 278.95 397.903 277.95C397.269 276.95 396.086 276.45 394.353 276.45C393.819 276.45 393.253 276.483 392.653 276.55C392.053 276.583 391.519 276.633 391.053 276.7V297H383.603V271.6ZM411.796 284.05C411.796 281.717 412.146 279.683 412.846 277.95C413.579 276.183 414.529 274.717 415.696 273.55C416.863 272.383 418.196 271.5 419.696 270.9C421.229 270.3 422.796 270 424.396 270C428.129 270 431.079 271.15 433.246 273.45C435.413 275.717 436.496 279.067 436.496 283.5C436.496 283.933 436.479 284.417 436.446 284.95C436.413 285.45 436.379 285.9 436.346 286.3H419.446C419.613 287.833 420.329 289.05 421.596 289.95C422.863 290.85 424.563 291.3 426.696 291.3C428.063 291.3 429.396 291.183 430.696 290.95C432.029 290.683 433.113 290.367 433.946 290L434.946 296.05C434.546 296.25 434.013 296.45 433.346 296.65C432.679 296.85 431.929 297.017 431.096 297.15C430.296 297.317 429.429 297.45 428.496 297.55C427.563 297.65 426.629 297.7 425.696 297.7C423.329 297.7 421.263 297.35 419.496 296.65C417.763 295.95 416.313 295 415.146 293.8C414.013 292.567 413.163 291.117 412.596 289.45C412.063 287.783 411.796 285.983 411.796 284.05ZM429.296 281.2C429.263 280.567 429.146 279.95 428.946 279.35C428.779 278.75 428.496 278.217 428.096 277.75C427.729 277.283 427.246 276.9 426.646 276.6C426.079 276.3 425.363 276.15 424.496 276.15C423.663 276.15 422.946 276.3 422.346 276.6C421.746 276.867 421.246 277.233 420.846 277.7C420.446 278.167 420.129 278.717 419.896 279.35C419.696 279.95 419.546 280.567 419.446 281.2H429.296ZM458.095 277.3C457.428 277.133 456.645 276.967 455.745 276.8C454.845 276.6 453.878 276.5 452.845 276.5C452.378 276.5 451.812 276.55 451.145 276.65C450.512 276.717 450.028 276.8 449.695 276.9V297H442.245V272.1C443.578 271.633 445.145 271.2 446.945 270.8C448.778 270.367 450.812 270.15 453.045 270.15C453.445 270.15 453.928 270.183 454.495 270.25C455.062 270.283 455.628 270.35 456.195 270.45C456.762 270.517 457.328 270.617 457.895 270.75C458.462 270.85 458.945 270.983 459.345 271.15L458.095 277.3Z" fill="black"/>
<path d="M287.276 222V187.35H310.476V193.9H295.076V201.15H308.776V207.7H295.076V222H287.276ZM330.361 202.3C329.694 202.133 328.911 201.967 328.011 201.8C327.111 201.6 326.144 201.5 325.111 201.5C324.644 201.5 324.077 201.55 323.411 201.65C322.777 201.717 322.294 201.8 321.961 201.9V222H314.511V197.1C315.844 196.633 317.411 196.2 319.211 195.8C321.044 195.367 323.077 195.15 325.311 195.15C325.711 195.15 326.194 195.183 326.761 195.25C327.327 195.283 327.894 195.35 328.461 195.45C329.027 195.517 329.594 195.617 330.161 195.75C330.727 195.85 331.211 195.983 331.611 196.15L330.361 202.3ZM343.054 222H335.604V195.7H343.054V222ZM343.754 188.1C343.754 189.467 343.304 190.55 342.404 191.35C341.538 192.117 340.504 192.5 339.304 192.5C338.104 192.5 337.054 192.117 336.154 191.35C335.288 190.55 334.854 189.467 334.854 188.1C334.854 186.733 335.288 185.667 336.154 184.9C337.054 184.1 338.104 183.7 339.304 183.7C340.504 183.7 341.538 184.1 342.404 184.9C343.304 185.667 343.754 186.733 343.754 188.1ZM356.408 208.65C356.408 210.95 356.924 212.8 357.958 214.2C358.991 215.6 360.524 216.3 362.558 216.3C363.224 216.3 363.841 216.283 364.408 216.25C364.974 216.183 365.441 216.117 365.808 216.05V202.5C365.341 202.2 364.724 201.95 363.958 201.75C363.224 201.55 362.474 201.45 361.708 201.45C358.174 201.45 356.408 203.85 356.408 208.65ZM373.258 221.15C372.591 221.35 371.824 221.55 370.958 221.75C370.091 221.917 369.174 222.067 368.208 222.2C367.274 222.333 366.308 222.433 365.308 222.5C364.341 222.6 363.408 222.65 362.508 222.65C360.341 222.65 358.408 222.333 356.708 221.7C355.008 221.067 353.574 220.167 352.408 219C351.241 217.8 350.341 216.367 349.708 214.7C349.108 213 348.808 211.1 348.808 209C348.808 206.867 349.074 204.95 349.608 203.25C350.141 201.517 350.908 200.05 351.908 198.85C352.908 197.65 354.124 196.733 355.558 196.1C357.024 195.467 358.691 195.15 360.558 195.15C361.591 195.15 362.508 195.25 363.308 195.45C364.141 195.65 364.974 195.933 365.808 196.3V184.4L373.258 183.2V221.15ZM396.083 202.3C395.417 202.133 394.633 201.967 393.733 201.8C392.833 201.6 391.867 201.5 390.833 201.5C390.367 201.5 389.8 201.55 389.133 201.65C388.5 201.717 388.017 201.8 387.683 201.9V222H380.233V197.1C381.567 196.633 383.133 196.2 384.933 195.8C386.767 195.367 388.8 195.15 391.033 195.15C391.433 195.15 391.917 195.183 392.483 195.25C393.05 195.283 393.617 195.35 394.183 195.45C394.75 195.517 395.317 195.617 395.883 195.75C396.45 195.85 396.933 195.983 397.333 196.15L396.083 202.3ZM408.777 222H401.327V195.7H408.777V222ZM409.477 188.1C409.477 189.467 409.027 190.55 408.127 191.35C407.26 192.117 406.227 192.5 405.027 192.5C403.827 192.5 402.777 192.117 401.877 191.35C401.01 190.55 400.577 189.467 400.577 188.1C400.577 186.733 401.01 185.667 401.877 184.9C402.777 184.1 403.827 183.7 405.027 183.7C406.227 183.7 407.26 184.1 408.127 184.9C409.027 185.667 409.477 186.733 409.477 188.1ZM414.53 208.85C414.53 206.95 414.83 205.167 415.43 203.5C416.064 201.8 416.964 200.333 418.13 199.1C419.297 197.833 420.714 196.833 422.38 196.1C424.047 195.367 425.947 195 428.08 195C429.48 195 430.764 195.133 431.93 195.4C433.097 195.633 434.23 195.983 435.33 196.45L433.78 202.4C433.08 202.133 432.314 201.9 431.48 201.7C430.647 201.5 429.714 201.4 428.68 201.4C426.48 201.4 424.83 202.083 423.73 203.45C422.664 204.817 422.13 206.617 422.13 208.85C422.13 211.217 422.63 213.05 423.63 214.35C424.664 215.65 426.447 216.3 428.98 216.3C429.88 216.3 430.847 216.217 431.88 216.05C432.914 215.883 433.864 215.617 434.73 215.25L435.78 221.35C434.914 221.717 433.83 222.033 432.53 222.3C431.23 222.567 429.797 222.7 428.23 222.7C425.83 222.7 423.764 222.35 422.03 221.65C420.297 220.917 418.864 219.933 417.73 218.7C416.63 217.467 415.814 216.017 415.28 214.35C414.78 212.65 414.53 210.817 414.53 208.85ZM440.78 222V184.4L448.23 183.2V195.8C448.73 195.633 449.364 195.483 450.13 195.35C450.93 195.183 451.697 195.1 452.43 195.1C454.564 195.1 456.33 195.4 457.73 196C459.164 196.567 460.297 197.383 461.13 198.45C461.997 199.517 462.597 200.783 462.93 202.25C463.297 203.717 463.48 205.35 463.48 207.15V222H456.03V208.05C456.03 205.65 455.714 203.95 455.08 202.95C454.48 201.95 453.347 201.45 451.68 201.45C451.014 201.45 450.38 201.517 449.78 201.65C449.214 201.75 448.697 201.867 448.23 202V222H440.78Z" fill="black"/>
<path d="M83 158H43C37.4772 158 33 162.477 33 168V208C33 213.523 37.4772 218 43 218H83C88.5229 218 93 213.523 93 208V168C93 162.477 88.5229 158 83 158Z" fill="#0000FF"/>
<path d="M145 158H105C99.4772 158 95 162.477 95 168V208C95 213.523 99.4772 218 105 218H145C150.523 218 155 213.523 155 208V168C155 162.477 150.523 158 145 158Z" fill="#00FF00"/>
<path d="M207 158H167C161.477 158 157 162.477 157 168V208C157 213.523 161.477 218 167 218H207C212.523 218 217 213.523 217 208V168C217 162.477 212.523 158 207 158Z" fill="#FFFF00"/>
<path d="M83 220H43C37.4772 220 33 224.477 33 230V270C33 275.523 37.4772 280 43 280H83C88.5229 280 93 275.523 93 270V230C93 224.477 88.5229 220 83 220Z" fill="#FF0000"/>
<path d="M145 220H105C99.4772 220 95 224.477 95 230V270C95 275.523 99.4772 280 105 280H145C150.523 280 155 275.523 155 270V230C155 224.477 150.523 220 145 220Z" fill="#0000FF"/>
<path d="M207 220H167C161.477 220 157 224.477 157 230V270C157 275.523 161.477 280 167 280H207C212.523 280 217 275.523 217 270V230C217 224.477 212.523 220 207 220Z" fill="#FFFF00"/>
<path d="M83 282H43C37.4772 282 33 286.477 33 292V332C33 337.523 37.4772 342 43 342H83C88.5229 342 93 337.523 93 332V292C93 286.477 88.5229 282 83 282Z" fill="#FF0000"/>
<path d="M145 282H105C99.4772 282 95 286.477 95 292V332C95 337.523 99.4772 342 105 342H145C150.523 342 155 337.523 155 332V292C155 286.477 150.523 282 145 282Z" fill="#FF9900"/>
<path d="M207 282H167C161.477 282 157 286.477 157 292V332C157 337.523 161.477 342 167 342H207C212.523 342 217 337.523 217 332V292C217 286.477 212.523 282 207 282Z" fill="#00FF00"/>
</svg>
