<svg width="500" height="500" viewBox="0 0 500 500" fill="none" xmlns="http://www.w3.org/2000/svg">
<path d="M319.861 262.35V269H309.411V297H301.611V269H291.161V262.35H319.861ZM336.757 277.3C336.091 277.133 335.307 276.967 334.407 276.8C333.507 276.6 332.541 276.5 331.507 276.5C331.041 276.5 330.474 276.55 329.807 276.65C329.174 276.717 328.691 276.8 328.357 276.9V297H320.907V272.1C322.241 271.633 323.807 271.2 325.607 270.8C327.441 270.367 329.474 270.15 331.707 270.15C332.107 270.15 332.591 270.183 333.157 270.25C333.724 270.283 334.291 270.35 334.857 270.45C335.424 270.517 335.991 270.617 336.557 270.75C337.124 270.85 337.607 270.983 338.007 271.15L336.757 277.3ZM351.563 291.8C352.296 291.8 352.996 291.783 353.663 291.75C354.329 291.717 354.863 291.667 355.263 291.6V285.95C354.963 285.883 354.513 285.817 353.913 285.75C353.313 285.683 352.763 285.65 352.263 285.65C351.563 285.65 350.896 285.7 350.263 285.8C349.663 285.867 349.129 286.017 348.663 286.25C348.196 286.483 347.829 286.8 347.563 287.2C347.296 287.6 347.163 288.1 347.163 288.7C347.163 289.867 347.546 290.683 348.313 291.15C349.113 291.583 350.196 291.8 351.563 291.8ZM350.963 270C353.163 270 354.996 270.25 356.463 270.75C357.929 271.25 359.096 271.967 359.963 272.9C360.863 273.833 361.496 274.967 361.863 276.3C362.229 277.633 362.413 279.117 362.413 280.75V296.25C361.346 296.483 359.863 296.75 357.963 297.05C356.063 297.383 353.763 297.55 351.063 297.55C349.363 297.55 347.813 297.4 346.413 297.1C345.046 296.8 343.863 296.317 342.863 295.65C341.863 294.95 341.096 294.05 340.563 292.95C340.029 291.85 339.763 290.5 339.763 288.9C339.763 287.367 340.063 286.067 340.663 285C341.296 283.933 342.129 283.083 343.163 282.45C344.196 281.817 345.379 281.367 346.713 281.1C348.046 280.8 349.429 280.65 350.863 280.65C351.829 280.65 352.679 280.7 353.413 280.8C354.179 280.867 354.796 280.967 355.263 281.1V280.4C355.263 279.133 354.879 278.117 354.113 277.35C353.346 276.583 352.013 276.2 350.113 276.2C348.846 276.2 347.596 276.3 346.363 276.5C345.129 276.667 344.063 276.917 343.163 277.25L342.213 271.25C342.646 271.117 343.179 270.983 343.813 270.85C344.479 270.683 345.196 270.55 345.963 270.45C346.729 270.317 347.529 270.217 348.363 270.15C349.229 270.05 350.096 270 350.963 270ZM376.599 297H369.149V270.7H376.599V297ZM377.299 263.1C377.299 264.467 376.849 265.55 375.949 266.35C375.083 267.117 374.049 267.5 372.849 267.5C371.649 267.5 370.599 267.117 369.699 266.35C368.833 265.55 368.399 264.467 368.399 263.1C368.399 261.733 368.833 260.667 369.699 259.9C370.599 259.1 371.649 258.7 372.849 258.7C374.049 258.7 375.083 259.1 375.949 259.9C376.849 260.667 377.299 261.733 377.299 263.1ZM383.603 271.6C384.869 271.233 386.503 270.9 388.503 270.6C390.503 270.267 392.603 270.1 394.803 270.1C397.036 270.1 398.886 270.4 400.353 271C401.853 271.567 403.036 272.383 403.903 273.45C404.769 274.517 405.386 275.783 405.753 277.25C406.119 278.717 406.303 280.35 406.303 282.15V297H398.853V283.05C398.853 280.65 398.536 278.95 397.903 277.95C397.269 276.95 396.086 276.45 394.353 276.45C393.819 276.45 393.253 276.483 392.653 276.55C392.053 276.583 391.519 276.633 391.053 276.7V297H383.603V271.6ZM411.796 284.05C411.796 281.717 412.146 279.683 412.846 277.95C413.579 276.183 414.529 274.717 415.696 273.55C416.863 272.383 418.196 271.5 419.696 270.9C421.229 270.3 422.796 270 424.396 270C428.129 270 431.079 271.15 433.246 273.45C435.413 275.717 436.496 279.067 436.496 283.5C436.496 283.933 436.479 284.417 436.446 284.95C436.413 285.45 436.379 285.9 436.346 286.3H419.446C419.613 287.833 420.329 289.05 421.596 289.95C422.863 290.85 424.563 291.3 426.696 291.3C428.063 291.3 429.396 291.183 430.696 290.95C432.029 290.683 433.113 290.367 433.946 290L434.946 296.05C434.546 296.25 434.013 296.45 433.346 296.65C432.679 296.85 431.929 297.017 431.096 297.15C430.296 297.317 429.429 297.45 428.496 297.55C427.563 297.65 426.629 297.7 425.696 297.7C423.329 297.7 421.263 297.35 419.496 296.65C417.763 295.95 416.313 295 415.146 293.8C414.013 292.567 413.163 291.117 412.596 289.45C412.063 287.783 411.796 285.983 411.796 284.05ZM429.296 281.2C429.263 280.567 429.146 279.95 428.946 279.35C428.779 278.75 428.496 278.217 428.096 277.75C427.729 277.283 427.246 276.9 426.646 276.6C426.079 276.3 425.363 276.15 424.496 276.15C423.663 276.15 422.946 276.3 422.346 276.6C421.746 276.867 421.246 277.233 420.846 277.7C420.446 278.167 420.129 278.717 419.896 279.35C419.696 279.95 419.546 280.567 419.446 281.2H429.296ZM458.095 277.3C457.428 277.133 456.645 276.967 455.745 276.8C454.845 276.6 453.878 276.5 452.845 276.5C452.378 276.5 451.812 276.55 451.145 276.65C450.512 276.717 450.028 276.8 449.695 276.9V297H442.245V272.1C443.578 271.633 445.145 271.2 446.945 270.8C448.778 270.367 450.812 270.15 453.045 270.15C453.445 270.15 453.928 270.183 454.495 270.25C455.062 270.283 455.628 270.35 456.195 270.45C456.762 270.517 457.328 270.617 457.895 270.75C458.462 270.85 458.945 270.983 459.345 271.15L458.095 277.3Z" fill="black"/>
<path d="M297.823 222V187.35H321.023V193.9H305.623V201.15H319.323V207.7H305.623V222H297.823ZM340.908 202.3C340.241 202.133 339.458 201.967 338.558 201.8C337.658 201.6 336.691 201.5 335.658 201.5C335.191 201.5 334.624 201.55 333.958 201.65C333.324 201.717 332.841 201.8 332.508 201.9V222H325.058V197.1C326.391 196.633 327.958 196.2 329.758 195.8C331.591 195.367 333.624 195.15 335.858 195.15C336.258 195.15 336.741 195.183 337.308 195.25C337.874 195.283 338.441 195.35 339.008 195.45C339.574 195.517 340.141 195.617 340.708 195.75C341.274 195.85 341.758 195.983 342.158 196.15L340.908 202.3ZM353.601 222H346.151V195.7H353.601V222ZM354.301 188.1C354.301 189.467 353.851 190.55 352.951 191.35C352.085 192.117 351.051 192.5 349.851 192.5C348.651 192.5 347.601 192.117 346.701 191.35C345.835 190.55 345.401 189.467 345.401 188.1C345.401 186.733 345.835 185.667 346.701 184.9C347.601 184.1 348.651 183.7 349.851 183.7C351.051 183.7 352.085 184.1 352.951 184.9C353.851 185.667 354.301 186.733 354.301 188.1ZM366.954 208.65C366.954 210.95 367.471 212.8 368.504 214.2C369.538 215.6 371.071 216.3 373.104 216.3C373.771 216.3 374.388 216.283 374.954 216.25C375.521 216.183 375.988 216.117 376.354 216.05V202.5C375.888 202.2 375.271 201.95 374.504 201.75C373.771 201.55 373.021 201.45 372.254 201.45C368.721 201.45 366.954 203.85 366.954 208.65ZM383.804 221.15C383.138 221.35 382.371 221.55 381.504 221.75C380.638 221.917 379.721 222.067 378.754 222.2C377.821 222.333 376.854 222.433 375.854 222.5C374.888 222.6 373.954 222.65 373.054 222.65C370.888 222.65 368.954 222.333 367.254 221.7C365.554 221.067 364.121 220.167 362.954 219C361.788 217.8 360.888 216.367 360.254 214.7C359.654 213 359.354 211.1 359.354 209C359.354 206.867 359.621 204.95 360.154 203.25C360.688 201.517 361.454 200.05 362.454 198.85C363.454 197.65 364.671 196.733 366.104 196.1C367.571 195.467 369.238 195.15 371.104 195.15C372.138 195.15 373.054 195.25 373.854 195.45C374.688 195.65 375.521 195.933 376.354 196.3V184.4L383.804 183.2V221.15ZM398.23 222H390.78V195.7H398.23V222ZM398.93 188.1C398.93 189.467 398.48 190.55 397.58 191.35C396.714 192.117 395.68 192.5 394.48 192.5C393.28 192.5 392.23 192.117 391.33 191.35C390.464 190.55 390.03 189.467 390.03 188.1C390.03 186.733 390.464 185.667 391.33 184.9C392.23 184.1 393.28 183.7 394.48 183.7C395.68 183.7 396.714 184.1 397.58 184.9C398.48 185.667 398.93 186.733 398.93 188.1ZM403.983 208.85C403.983 206.95 404.283 205.167 404.883 203.5C405.517 201.8 406.417 200.333 407.583 199.1C408.75 197.833 410.167 196.833 411.833 196.1C413.5 195.367 415.4 195 417.533 195C418.933 195 420.217 195.133 421.383 195.4C422.55 195.633 423.683 195.983 424.783 196.45L423.233 202.4C422.533 202.133 421.767 201.9 420.933 201.7C420.1 201.5 419.167 201.4 418.133 201.4C415.933 201.4 414.283 202.083 413.183 203.45C412.117 204.817 411.583 206.617 411.583 208.85C411.583 211.217 412.083 213.05 413.083 214.35C414.117 215.65 415.9 216.3 418.433 216.3C419.333 216.3 420.3 216.217 421.333 216.05C422.367 215.883 423.317 215.617 424.183 215.25L425.233 221.35C424.367 221.717 423.283 222.033 421.983 222.3C420.683 222.567 419.25 222.7 417.683 222.7C415.283 222.7 413.217 222.35 411.483 221.65C409.75 220.917 408.317 219.933 407.183 218.7C406.083 217.467 405.267 216.017 404.733 214.35C404.233 212.65 403.983 210.817 403.983 208.85ZM430.233 222V184.4L437.683 183.2V195.8C438.183 195.633 438.817 195.483 439.583 195.35C440.383 195.183 441.15 195.1 441.883 195.1C444.017 195.1 445.783 195.4 447.183 196C448.617 196.567 449.75 197.383 450.583 198.45C451.45 199.517 452.05 200.783 452.383 202.25C452.75 203.717 452.933 205.35 452.933 207.15V222H445.483V208.05C445.483 205.65 445.167 203.95 444.533 202.95C443.933 201.95 442.8 201.45 441.133 201.45C440.467 201.45 439.833 201.517 439.233 201.65C438.667 201.75 438.15 201.867 437.683 202V222H430.233Z" fill="black"/>
<path d="M83 158H43C37.4772 158 33 162.477 33 168V208C33 213.523 37.4772 218 43 218H83C88.5229 218 93 213.523 93 208V168C93 162.477 88.5229 158 83 158Z" fill="#0000FF"/>
<path d="M145 158H105C99.4772 158 95 162.477 95 168V208C95 213.523 99.4772 218 105 218H145C150.523 218 155 213.523 155 208V168C155 162.477 150.523 158 145 158Z" fill="#00FF00"/>
<path d="M207 158H167C161.477 158 157 162.477 157 168V208C157 213.523 161.477 218 167 218H207C212.523 218 217 213.523 217 208V168C217 162.477 212.523 158 207 158Z" fill="#FFFF00"/>
<path d="M83 220H43C37.4772 220 33 224.477 33 230V270C33 275.523 37.4772 280 43 280H83C88.5229 280 93 275.523 93 270V230C93 224.477 88.5229 220 83 220Z" fill="#FF0000"/>
<path d="M145 220H105C99.4772 220 95 224.477 95 230V270C95 275.523 99.4772 280 105 280H145C150.523 280 155 275.523 155 270V230C155 224.477 150.523 220 145 220Z" fill="#0000FF"/>
<path d="M207 220H167C161.477 220 157 224.477 157 230V270C157 275.523 161.477 280 167 280H207C212.523 280 217 275.523 217 270V230C217 224.477 212.523 220 207 220Z" fill="#FFFF00"/>
<path d="M83 282H43C37.4772 282 33 286.477 33 292V332C33 337.523 37.4772 342 43 342H83C88.5229 342 93 337.523 93 332V292C93 286.477 88.5229 282 83 282Z" fill="#FF0000"/>
<path d="M145 282H105C99.4772 282 95 286.477 95 292V332C95 337.523 99.4772 342 105 342H145C150.523 342 155 337.523 155 332V292C155 286.477 150.523 282 145 282Z" fill="#FF9900"/>
<path d="M207 282H167C161.477 282 157 286.477 157 292V332C157 337.523 161.477 342 167 342H207C212.523 342 217 337.523 217 332V292C217 286.477 212.523 282 207 282Z" fill="#00FF00"/>
</svg>
