<svg width="500" height="500" viewBox="0 0 500 500" fill="none" xmlns="http://www.w3.org/2000/svg">
<path d="M194.861 387.35V394H184.411V422H176.611V394H166.161V387.35H194.861ZM211.757 402.3C211.091 402.133 210.307 401.967 209.407 401.8C208.507 401.6 207.541 401.5 206.507 401.5C206.041 401.5 205.474 401.55 204.807 401.65C204.174 401.717 203.691 401.8 203.357 401.9V422H195.907V397.1C197.241 396.633 198.807 396.2 200.607 395.8C202.441 395.367 204.474 395.15 206.707 395.15C207.107 395.15 207.591 395.183 208.157 395.25C208.724 395.283 209.291 395.35 209.857 395.45C210.424 395.517 210.991 395.617 211.557 395.75C212.124 395.85 212.607 395.983 213.007 396.15L211.757 402.3ZM226.563 416.8C227.296 416.8 227.996 416.783 228.663 416.75C229.329 416.717 229.863 416.667 230.263 416.6V410.95C229.963 410.883 229.513 410.817 228.913 410.75C228.313 410.683 227.763 410.65 227.263 410.65C226.563 410.65 225.896 410.7 225.263 410.8C224.663 410.867 224.129 411.017 223.663 411.25C223.196 411.483 222.829 411.8 222.563 412.2C222.296 412.6 222.163 413.1 222.163 413.7C222.163 414.867 222.546 415.683 223.313 416.15C224.113 416.583 225.196 416.8 226.563 416.8ZM225.963 395C228.163 395 229.996 395.25 231.463 395.75C232.929 396.25 234.096 396.967 234.963 397.9C235.863 398.833 236.496 399.967 236.863 401.3C237.229 402.633 237.413 404.117 237.413 405.75V421.25C236.346 421.483 234.863 421.75 232.963 422.05C231.063 422.383 228.763 422.55 226.063 422.55C224.363 422.55 222.813 422.4 221.413 422.1C220.046 421.8 218.863 421.317 217.863 420.65C216.863 419.95 216.096 419.05 215.563 417.95C215.029 416.85 214.763 415.5 214.763 413.9C214.763 412.367 215.063 411.067 215.663 410C216.296 408.933 217.129 408.083 218.163 407.45C219.196 406.817 220.379 406.367 221.713 406.1C223.046 405.8 224.429 405.65 225.863 405.65C226.829 405.65 227.679 405.7 228.413 405.8C229.179 405.867 229.796 405.967 230.263 406.1V405.4C230.263 404.133 229.879 403.117 229.113 402.35C228.346 401.583 227.013 401.2 225.113 401.2C223.846 401.2 222.596 401.3 221.363 401.5C220.129 401.667 219.063 401.917 218.163 402.25L217.213 396.25C217.646 396.117 218.179 395.983 218.813 395.85C219.479 395.683 220.196 395.55 220.963 395.45C221.729 395.317 222.529 395.217 223.363 395.15C224.229 395.05 225.096 395 225.963 395ZM251.599 422H244.149V395.7H251.599V422ZM252.299 388.1C252.299 389.467 251.849 390.55 250.949 391.35C250.083 392.117 249.049 392.5 247.849 392.5C246.649 392.5 245.599 392.117 244.699 391.35C243.833 390.55 243.399 389.467 243.399 388.1C243.399 386.733 243.833 385.667 244.699 384.9C245.599 384.1 246.649 383.7 247.849 383.7C249.049 383.7 250.083 384.1 250.949 384.9C251.849 385.667 252.299 386.733 252.299 388.1ZM258.603 396.6C259.869 396.233 261.503 395.9 263.503 395.6C265.503 395.267 267.603 395.1 269.803 395.1C272.036 395.1 273.886 395.4 275.353 396C276.853 396.567 278.036 397.383 278.903 398.45C279.769 399.517 280.386 400.783 280.753 402.25C281.119 403.717 281.303 405.35 281.303 407.15V422H273.853V408.05C273.853 405.65 273.536 403.95 272.903 402.95C272.269 401.95 271.086 401.45 269.353 401.45C268.819 401.45 268.253 401.483 267.653 401.55C267.053 401.583 266.519 401.633 266.053 401.7V422H258.603V396.6ZM286.796 409.05C286.796 406.717 287.146 404.683 287.846 402.95C288.579 401.183 289.529 399.717 290.696 398.55C291.863 397.383 293.196 396.5 294.696 395.9C296.229 395.3 297.796 395 299.396 395C303.129 395 306.079 396.15 308.246 398.45C310.413 400.717 311.496 404.067 311.496 408.5C311.496 408.933 311.479 409.417 311.446 409.95C311.413 410.45 311.379 410.9 311.346 411.3H294.446C294.613 412.833 295.329 414.05 296.596 414.95C297.863 415.85 299.563 416.3 301.696 416.3C303.063 416.3 304.396 416.183 305.696 415.95C307.029 415.683 308.113 415.367 308.946 415L309.946 421.05C309.546 421.25 309.013 421.45 308.346 421.65C307.679 421.85 306.929 422.017 306.096 422.15C305.296 422.317 304.429 422.45 303.496 422.55C302.563 422.65 301.629 422.7 300.696 422.7C298.329 422.7 296.263 422.35 294.496 421.65C292.763 420.95 291.313 420 290.146 418.8C289.013 417.567 288.163 416.117 287.596 414.45C287.063 412.783 286.796 410.983 286.796 409.05ZM304.296 406.2C304.263 405.567 304.146 404.95 303.946 404.35C303.779 403.75 303.496 403.217 303.096 402.75C302.729 402.283 302.246 401.9 301.646 401.6C301.079 401.3 300.363 401.15 299.496 401.15C298.663 401.15 297.946 401.3 297.346 401.6C296.746 401.867 296.246 402.233 295.846 402.7C295.446 403.167 295.129 403.717 294.896 404.35C294.696 404.95 294.546 405.567 294.446 406.2H304.296ZM333.095 402.3C332.428 402.133 331.645 401.967 330.745 401.8C329.845 401.6 328.878 401.5 327.845 401.5C327.378 401.5 326.812 401.55 326.145 401.65C325.512 401.717 325.028 401.8 324.695 401.9V422H317.245V397.1C318.578 396.633 320.145 396.2 321.945 395.8C323.778 395.367 325.812 395.15 328.045 395.15C328.445 395.15 328.928 395.183 329.495 395.25C330.062 395.283 330.628 395.35 331.195 395.45C331.762 395.517 332.328 395.617 332.895 395.75C333.462 395.85 333.945 395.983 334.345 396.15L333.095 402.3Z" fill="black"/>
<path d="M172.823 347V312.35H196.023V318.9H180.623V326.15H194.323V332.7H180.623V347H172.823ZM215.908 327.3C215.241 327.133 214.458 326.967 213.558 326.8C212.658 326.6 211.691 326.5 210.658 326.5C210.191 326.5 209.624 326.55 208.958 326.65C208.324 326.717 207.841 326.8 207.508 326.9V347H200.058V322.1C201.391 321.633 202.958 321.2 204.758 320.8C206.591 320.367 208.624 320.15 210.858 320.15C211.258 320.15 211.741 320.183 212.308 320.25C212.874 320.283 213.441 320.35 214.008 320.45C214.574 320.517 215.141 320.617 215.708 320.75C216.274 320.85 216.758 320.983 217.158 321.15L215.908 327.3ZM228.601 347H221.151V320.7H228.601V347ZM229.301 313.1C229.301 314.467 228.851 315.55 227.951 316.35C227.085 317.117 226.051 317.5 224.851 317.5C223.651 317.5 222.601 317.117 221.701 316.35C220.835 315.55 220.401 314.467 220.401 313.1C220.401 311.733 220.835 310.667 221.701 309.9C222.601 309.1 223.651 308.7 224.851 308.7C226.051 308.7 227.085 309.1 227.951 309.9C228.851 310.667 229.301 311.733 229.301 313.1ZM241.954 333.65C241.954 335.95 242.471 337.8 243.504 339.2C244.538 340.6 246.071 341.3 248.104 341.3C248.771 341.3 249.388 341.283 249.954 341.25C250.521 341.183 250.988 341.117 251.354 341.05V327.5C250.888 327.2 250.271 326.95 249.504 326.75C248.771 326.55 248.021 326.45 247.254 326.45C243.721 326.45 241.954 328.85 241.954 333.65ZM258.804 346.15C258.138 346.35 257.371 346.55 256.504 346.75C255.638 346.917 254.721 347.067 253.754 347.2C252.821 347.333 251.854 347.433 250.854 347.5C249.888 347.6 248.954 347.65 248.054 347.65C245.888 347.65 243.954 347.333 242.254 346.7C240.554 346.067 239.121 345.167 237.954 344C236.788 342.8 235.888 341.367 235.254 339.7C234.654 338 234.354 336.1 234.354 334C234.354 331.867 234.621 329.95 235.154 328.25C235.688 326.517 236.454 325.05 237.454 323.85C238.454 322.65 239.671 321.733 241.104 321.1C242.571 320.467 244.238 320.15 246.104 320.15C247.138 320.15 248.054 320.25 248.854 320.45C249.688 320.65 250.521 320.933 251.354 321.3V309.4L258.804 308.2V346.15ZM273.23 347H265.78V320.7H273.23V347ZM273.93 313.1C273.93 314.467 273.48 315.55 272.58 316.35C271.714 317.117 270.68 317.5 269.48 317.5C268.28 317.5 267.23 317.117 266.33 316.35C265.464 315.55 265.03 314.467 265.03 313.1C265.03 311.733 265.464 310.667 266.33 309.9C267.23 309.1 268.28 308.7 269.48 308.7C270.68 308.7 271.714 309.1 272.58 309.9C273.48 310.667 273.93 311.733 273.93 313.1ZM278.983 333.85C278.983 331.95 279.283 330.167 279.883 328.5C280.517 326.8 281.417 325.333 282.583 324.1C283.75 322.833 285.167 321.833 286.833 321.1C288.5 320.367 290.4 320 292.533 320C293.933 320 295.217 320.133 296.383 320.4C297.55 320.633 298.683 320.983 299.783 321.45L298.233 327.4C297.533 327.133 296.767 326.9 295.933 326.7C295.1 326.5 294.167 326.4 293.133 326.4C290.933 326.4 289.283 327.083 288.183 328.45C287.117 329.817 286.583 331.617 286.583 333.85C286.583 336.217 287.083 338.05 288.083 339.35C289.117 340.65 290.9 341.3 293.433 341.3C294.333 341.3 295.3 341.217 296.333 341.05C297.367 340.883 298.317 340.617 299.183 340.25L300.233 346.35C299.367 346.717 298.283 347.033 296.983 347.3C295.683 347.567 294.25 347.7 292.683 347.7C290.283 347.7 288.217 347.35 286.483 346.65C284.75 345.917 283.317 344.933 282.183 343.7C281.083 342.467 280.267 341.017 279.733 339.35C279.233 337.65 278.983 335.817 278.983 333.85ZM305.233 347V309.4L312.683 308.2V320.8C313.183 320.633 313.817 320.483 314.583 320.35C315.383 320.183 316.15 320.1 316.883 320.1C319.017 320.1 320.783 320.4 322.183 321C323.617 321.567 324.75 322.383 325.583 323.45C326.45 324.517 327.05 325.783 327.383 327.25C327.75 328.717 327.933 330.35 327.933 332.15V347H320.483V333.05C320.483 330.65 320.167 328.95 319.533 327.95C318.933 326.95 317.8 326.45 316.133 326.45C315.467 326.45 314.833 326.517 314.233 326.65C313.667 326.75 313.15 326.867 312.683 327V347H305.233Z" fill="black"/>
<path d="M208 58H168C162.477 58 158 62.4772 158 68V108C158 113.523 162.477 118 168 118H208C213.523 118 218 113.523 218 108V68C218 62.4772 213.523 58 208 58Z" fill="#0000FF"/>
<path d="M270 58H230C224.477 58 220 62.4772 220 68V108C220 113.523 224.477 118 230 118H270C275.523 118 280 113.523 280 108V68C280 62.4772 275.523 58 270 58Z" fill="#00FF00"/>
<path d="M332 58H292C286.477 58 282 62.4772 282 68V108C282 113.523 286.477 118 292 118H332C337.523 118 342 113.523 342 108V68C342 62.4772 337.523 58 332 58Z" fill="#FFFF00"/>
<path d="M208 120H168C162.477 120 158 124.477 158 130V170C158 175.523 162.477 180 168 180H208C213.523 180 218 175.523 218 170V130C218 124.477 213.523 120 208 120Z" fill="#FF0000"/>
<path d="M270 120H230C224.477 120 220 124.477 220 130V170C220 175.523 224.477 180 230 180H270C275.523 180 280 175.523 280 170V130C280 124.477 275.523 120 270 120Z" fill="#0000FF"/>
<path d="M332 120H292C286.477 120 282 124.477 282 130V170C282 175.523 286.477 180 292 180H332C337.523 180 342 175.523 342 170V130C342 124.477 337.523 120 332 120Z" fill="#FFFF00"/>
<path d="M208 182H168C162.477 182 158 186.477 158 192V232C158 237.523 162.477 242 168 242H208C213.523 242 218 237.523 218 232V192C218 186.477 213.523 182 208 182Z" fill="#FF0000"/>
<path d="M270 182H230C224.477 182 220 186.477 220 192V232C220 237.523 224.477 242 230 242H270C275.523 242 280 237.523 280 232V192C280 186.477 275.523 182 270 182Z" fill="#FF9900"/>
<path d="M332 182H292C286.477 182 282 186.477 282 192V232C282 237.523 286.477 242 292 242H332C337.523 242 342 237.523 342 232V192C342 186.477 337.523 182 332 182Z" fill="#00FF00"/>
</svg>
